<svg width="360" height="88" viewBox="0 0 360 88" fill="none" xmlns="http://www.w3.org/2000/svg">
  <defs>
    <linearGradient id="bg" x1="9" y1="9" x2="79" y2="79" gradientUnits="userSpaceOnUse">
      <stop stop-color="#0F172A" />
      <stop offset="1" stop-color="#020617" />
    </linearGradient>
    <linearGradient id="shield" x1="24" y1="16" x2="56" y2="68" gradientUnits="userSpaceOnUse">
      <stop stop-color="#67E8F9" />
      <stop offset="0.52" stop-color="#38BDF8" />
      <stop offset="1" stop-color="#2563EB" />
    </linearGradient>
    <linearGradient id="accent" x1="12" y1="18" x2="64" y2="60" gradientUnits="userSpaceOnUse">
      <stop stop-color="#E0F2FE" />
      <stop offset="1" stop-color="#7DD3FC" />
    </linearGradient>
    <radialGradient id="glow" cx="0" cy="0" r="1" gradientTransform="translate(44 33) rotate(90) scale(28)">
      <stop stop-color="#38BDF8" stop-opacity="0.3" />
      <stop offset="1" stop-color="#38BDF8" stop-opacity="0" />
    </radialGradient>
  </defs>
  <rect x="8" y="8" width="72" height="72" rx="22" fill="url(#bg)" />
  <rect x="9" y="9" width="70" height="70" rx="21" stroke="#1E293B" stroke-width="2" />
  <circle cx="44" cy="33" r="23" fill="url(#glow)" />
  <path d="M44 16L61.5 22.3V38.2C61.5 50.3 54.4 60.7 44 65.8C33.6 60.7 26.5 50.3 26.5 38.2V22.3L44 16Z" fill="url(#shield)" />
  <path d="M44 21L56.8 25.6V37.4C56.8 46.3 51.7 54 44 58.2C36.3 54 31.2 46.3 31.2 37.4V25.6L44 21Z" fill="#081121" />
  <circle cx="44" cy="37" r="11" stroke="url(#accent)" stroke-width="2.2" />
  <path d="M33 37H55" stroke="#BAE6FD" stroke-width="1.9" stroke-linecap="round" />
  <path d="M44 26V48" stroke="#BAE6FD" stroke-width="1.9" stroke-linecap="round" />
  <path d="M37.8 28.1C39.7 30.3 40.8 33.4 40.8 37C40.8 40.6 39.7 43.7 37.8 45.9" stroke="#BAE6FD" stroke-width="1.6" stroke-linecap="round" />
  <path d="M50.2 28.1C48.3 30.3 47.2 33.4 47.2 37C47.2 40.6 48.3 43.7 50.2 45.9" stroke="#BAE6FD" stroke-width="1.6" stroke-linecap="round" />
  <path d="M35.8 31.3C37.9 32.3 40.8 32.9 44 32.9C47.2 32.9 50.1 32.3 52.2 31.3" stroke="#BAE6FD" stroke-width="1.5" stroke-linecap="round" />
  <path d="M35.8 42.7C37.9 41.7 40.8 41.1 44 41.1C47.2 41.1 50.1 41.7 52.2 42.7" stroke="#BAE6FD" stroke-width="1.5" stroke-linecap="round" />
  <path d="M44 16L61.5 22.3" stroke="#E0F2FE" stroke-opacity="0.6" stroke-width="1.2" />
  <circle cx="44" cy="18" r="2.6" fill="#E0F2FE" />
  <text x="104" y="40" fill="#E2E8F0" font-family="Arial, Helvetica, sans-serif" font-size="30" font-weight="700" letter-spacing="5.5">ATRAVA</text>
  <path d="M104 52H248" stroke="#38BDF8" stroke-width="2.5" stroke-linecap="round" stroke-opacity="0.8" />
  <text x="104" y="69" fill="#7DD3FC" fill-opacity="0.95" font-family="Arial, Helvetica, sans-serif" font-size="11" font-weight="700" letter-spacing="4.2">DOMAIN DEFENSE</text>
</svg>
