<svg width="180" height="180" viewBox="0 0 180 180" fill="none" xmlns="http://www.w3.org/2000/svg">
  <defs>
    <linearGradient id="bg" x1="22" y1="14" x2="156" y2="162" gradientUnits="userSpaceOnUse">
      <stop stop-color="#0F172A" />
      <stop offset="1" stop-color="#020617" />
    </linearGradient>
    <linearGradient id="shield" x1="50" y1="24" x2="118" y2="141" gradientUnits="userSpaceOnUse">
      <stop stop-color="#67E8F9" />
      <stop offset="0.52" stop-color="#38BDF8" />
      <stop offset="1" stop-color="#2563EB" />
    </linearGradient>
    <linearGradient id="accent" x1="32" y1="34" x2="143" y2="121" gradientUnits="userSpaceOnUse">
      <stop stop-color="#E0F2FE" />
      <stop offset="1" stop-color="#7DD3FC" />
    </linearGradient>
    <radialGradient id="glow" cx="0" cy="0" r="1" gradientTransform="translate(90 67) rotate(90) scale(60)">
      <stop stop-color="#38BDF8" stop-opacity="0.3" />
      <stop offset="1" stop-color="#38BDF8" stop-opacity="0" />
    </radialGradient>
  </defs>
  <rect x="10" y="10" width="160" height="160" rx="46" fill="url(#bg)" />
  <rect x="11.5" y="11.5" width="157" height="157" rx="44.5" stroke="#1E293B" stroke-width="3" />
  <circle cx="90" cy="67" r="50" fill="url(#glow)" />
  <path d="M90 28L133 43.5V82.7C133 112.4 115.5 137.5 90 150C64.5 137.5 47 112.4 47 82.7V43.5L90 28Z" fill="url(#shield)" />
  <path d="M90 41L121.6 52.4V81.6C121.6 103.5 109 122.6 90 133C71 122.6 58.4 103.5 58.4 81.6V52.4L90 41Z" fill="#081121" />
  <circle cx="90" cy="81" r="24" stroke="url(#accent)" stroke-width="4.2" />
  <path d="M66 81H114" stroke="#BAE6FD" stroke-width="4" stroke-linecap="round" />
  <path d="M90 57V105" stroke="#BAE6FD" stroke-width="4" stroke-linecap="round" />
  <path d="M76.6 61.2C80.7 65.8 83.1 72.6 83.1 81C83.1 89.4 80.7 96.2 76.6 100.8" stroke="#BAE6FD" stroke-width="3.2" stroke-linecap="round" />
  <path d="M103.4 61.2C99.3 65.8 96.9 72.6 96.9 81C96.9 89.4 99.3 96.2 103.4 100.8" stroke="#BAE6FD" stroke-width="3.2" stroke-linecap="round" />
  <path d="M72.5 68.2C77.1 70.3 83.1 71.5 90 71.5C96.9 71.5 102.9 70.3 107.5 68.2" stroke="#BAE6FD" stroke-width="3" stroke-linecap="round" />
  <path d="M72.5 93.8C77.1 91.7 83.1 90.5 90 90.5C96.9 90.5 102.9 91.7 107.5 93.8" stroke="#BAE6FD" stroke-width="3" stroke-linecap="round" />
  <path d="M90 28L133 43.5" stroke="#E0F2FE" stroke-opacity="0.6" stroke-width="2" />
  <circle cx="90" cy="30.5" r="5.2" fill="#E0F2FE" />
</svg>
